<svg class="app-logo" xmlns="http://www.w3.org/2000/svg" viewBox="0 0 404.357 404.357">
  <path fill="white" d="M4.878,27.064C3.156,13.011,10.272,5.345,16.545,1.389c4.205-2.653,9.762-1.393,12.413,2.812
c2.652,4.204,1.393,9.762-2.812,12.413c-5.813,3.666-4.154,10.492,3.43,27.881c3.535,8.104,7.19,16.485,8.186,24.563
c1.727,14.021-5.363,21.665-11.615,25.608c-1.491,0.94-3.152,1.389-4.793,1.389c-2.987,0-5.909-1.486-7.621-4.2
c-2.652-4.204-1.393-9.762,2.811-12.413c5.75-3.627,4.091-10.424-3.467-27.75C9.535,43.568,5.871,35.169,4.878,27.064z
M54.553,63.44c7.558,17.326,9.218,24.123,3.467,27.75c-4.204,2.651-5.463,8.209-2.811,12.414c1.711,2.713,4.633,4.199,7.621,4.199
c1.641,0,3.302-0.448,4.792-1.389c6.252-3.943,13.342-11.587,11.615-25.608c-0.995-8.078-4.65-16.459-8.186-24.563
c-7.585-17.389-9.244-24.215-3.43-27.882c4.205-2.651,5.463-8.209,2.812-12.413s-8.211-5.463-12.413-2.812
c-6.273,3.956-13.39,11.622-11.668,25.676C47.346,46.917,51.01,55.316,54.553,63.44z M302.999,203.052
c16.507,22.54,16.235,53.984-0.676,78.243c-15.58,22.349-41.763,33.551-66.789,29.171l-7.644,10.964
c-1.683,2.414-4.44,3.853-7.383,3.853c-2.943,0-5.7-1.438-7.383-3.854l-7.643-10.963c-25.021,4.386-51.206-6.822-66.784-29.171
c-16.915-24.259-17.188-55.702-0.679-78.243c1.18-1.611,2.863-2.785,4.783-3.335c26.857-7.691,56.266,3.438,73.179,27.698
c1.672,2.399,3.182,4.867,4.528,7.391c1.347-2.523,2.855-4.991,4.527-7.39c16.913-24.261,46.32-35.39,73.179-27.699
C300.136,200.266,301.819,201.44,302.999,203.052z M201.216,237.71c-11.867-17.022-31.803-25.384-50.429-21.441
c-10.137,16.116-9.191,37.711,2.677,54.732c9.692,13.903,24.768,22.026,40.116,22.391l-26.157-37.522
c-2.842-4.077-1.841-9.688,2.236-12.529c4.077-2.843,9.687-1.842,12.53,2.236l26.157,37.522
C213.317,268.57,210.91,251.615,201.216,237.71z M290.231,216.268c-18.624-3.933-38.561,4.42-50.428,21.441
c-9.692,13.903-12.099,30.859-7.131,45.388l26.159-37.522c1.75-2.509,4.547-3.854,7.391-3.854c1.777,0,3.571,0.524,5.139,1.618
c4.078,2.843,5.079,8.452,2.236,12.53l-26.159,37.521c15.352-0.362,30.425-8.484,40.119-22.391
C299.423,253.979,300.368,232.385,290.231,216.268z M403.867,304.404c0,31.162-16.532,47.63-30.401,55.957
c-14.672,8.81-30.526,11.138-36.86,11.138H104.561c-6.333,0-22.188-2.328-36.861-11.138c-13.732-8.245-30.076-24.475-30.396-55.045
L0.664,121.402c-0.618-3.103,0.438-6.301,2.781-8.426s5.627-2.862,8.656-1.946l62.435,18.921c2.882,0.873,5.136,3.131,6.006,6.014
l11.425,37.866c1.655-1.629,3.334-3.221,5.044-4.78v-68.125c0-44.345,34.352-80.422,76.577-80.422h93.987
c42.225,0,76.578,36.077,76.578,80.422v68.228C380.831,202.69,403.867,250.906,403.867,304.404z M115.011,154.597
c9.64-6.789,19.896-12.621,30.609-17.425c2.864-12.536,8.842-24.156,17.455-33.852C175.654,89.154,192.971,80.197,211.582,78v-7.046
c0-4.971,4.029-9,9-9s9,4.029,9,9v7.044c15.125,1.783,29.463,8.029,41.099,18.032c12.5,10.744,21.206,25.204,24.856,41.124
c10.8,4.858,21.042,10.731,30.615,17.499v-53.728c0-34.42-26.278-62.422-58.578-62.422h-93.987
c-32.299,0-58.577,28.002-58.577,62.422V154.597z M220.583,95.469c-16.818,0-32.874,7.218-44.05,19.804
c-3.701,4.166-6.765,8.794-9.13,13.747c17.081-5.186,34.988-7.899,53.181-7.899c18.499,0,36.37,2.756,53.218,7.877
C264.293,108.878,243.929,95.469,220.583,95.469z M77.863,189.401l-13.162-43.622L21.25,132.611l23.745,119.184
C51.76,229.194,62.871,207.991,77.863,189.401z M385.867,304.404c0-91.138-74.146-165.283-165.284-165.283
c-47.198,0-92.257,20.256-123.624,55.573c-0.658,0.74-2.33,2.705-2.539,2.927C69.2,227.392,55.338,265.098,55.3,304.244
c0.002,0.111,0.002,0.222,0,0.332c0.119,46.817,48.769,48.923,49.261,48.923h232.045
C337.099,353.499,385.867,351.388,385.867,304.404z M309.519,386.357H131.646c-4.971,0-9,4.029-9,9s4.029,9,9,9h177.873
c4.971,0,9-4.029,9-9S314.49,386.357,309.519,386.357z" />
</svg>